<?xml version="1.0" encoding="utf-8"?>
<!-- Generator: Adobe Illustrator 16.0.0, SVG Export Plug-In . SVG Version: 6.00 Build 0)  -->
<!DOCTYPE svg PUBLIC "-//W3C//DTD SVG 1.1//EN" "http://www.w3.org/Graphics/SVG/1.1/DTD/svg11.dtd">
<svg version="1.1" id="Layer_1" xmlns="http://www.w3.org/2000/svg" xmlns:xlink="http://www.w3.org/1999/xlink" x="0px" y="0px"
	 width="254.088px" height="212.497px" viewBox="0 53.5 254.088 212.497" enable-background="new 0 53.5 254.088 212.497"
	 xml:space="preserve">
<rect x="46.357" y="-66.003" fill="#2F63AF" width="160.643" height="332"/>
<rect x="54" y="-114" fill="none" stroke="#FFFFFF" stroke-width="3" stroke-miterlimit="10" width="145.356" height="372.209"/>
<g>
	<g>
		<defs>
			<rect id="SVGID_1_" y="70.197" width="254.088" height="178.803"/>
		</defs>
		<clipPath id="SVGID_2_">
			<use xlink:href="#SVGID_1_"  overflow="visible"/>
		</clipPath>
		<path clip-path="url(#SVGID_2_)" fill="#2F63AF" d="M220.24,223.891c-4.384-2.19-9.23-4.236-14.41-6.082l-0.785-0.276
			c-0.935-0.316-1.788-0.604-2.571-0.862l-1.375-0.453v-0.006c-32.873-10.549-69.13-10.855-73.209-10.855h-0.979
			c-3.551,0-35.588,0.248-66.585,8.875c-1.681,0.426-3.937,1.1-6.752,2.02l-1.687,0.562c-0.506,0.168-1.012,0.336-1.516,0.511
			l-0.138,0.048c-5.667,1.961-10.934,4.154-15.671,6.521l-2.173,1.086l-11.321-40.881l1.512-0.726
			c0.322-0.151,8.053-3.821,22.209-7.959c1.407-0.41,2.872-0.826,4.403-1.242c0.839-0.228,1.702-0.458,2.578-0.685
			c2.434-0.635,5.025-1.268,7.698-1.879c0.094-0.025,0.227-0.054,0.36-0.082c5.837-1.329,11.877-2.5,17.923-3.475
			c5.247-0.844,10.618-1.559,15.978-2.131l0.465-0.134c2.505-0.723,6.292-2.023,10.677-3.531c7.214-2.477,16.19-5.56,23.899-7.584
			c1.238-0.324,2.683-0.729,4.321-1.19c4.484-1.258,10.625-2.982,17.953-4.564c3.239-0.699,6.521-1.327,9.752-1.864
			c10.265-1.708,20.58-2.573,30.659-2.573h0.247c3.835,0.005,7.715,0.138,11.528,0.393c0.858,0.057,1.721,0.122,2.586,0.193
			l0.488,0.04c0.654,0.053,1.309,0.106,1.969,0.169c2.629,0.255,5.269,0.569,7.844,0.937l0.383,0.054l0.335,0.193
			c5.712,3.297,5.222,5.126,5.013,5.907c-0.357,1.337-1.556,2.014-3.562,2.014l-0.198-0.002c-0.566-0.01-1.48-0.071-2.715-0.153
			c-2.206-0.148-5.541-0.372-9.771-0.481l-2.543-0.048c-0.783-0.011-1.605-0.016-2.457-0.016c-21.867,0-43.61,3.561-64.646,10.583
			c29.216,0.781,52.649,5.425,67.649,9.375l2.567,0.689c16.562,4.548,25.669,8.865,26.048,9.046l1.512,0.726l-11.319,40.881
			L220.24,223.891z"/>
	</g>
	<g>
		<defs>
			<rect id="SVGID_3_" y="70.197" width="254.088" height="178.803"/>
		</defs>
		<clipPath id="SVGID_4_">
			<use xlink:href="#SVGID_3_"  overflow="visible"/>
		</clipPath>
		<path clip-path="url(#SVGID_4_)" fill="#2F63AF" d="M191.47,146.477c0.076,0,0.153,0,0.229,0
			c3.694,0.005,7.497,0.127,11.399,0.389c0.848,0.056,1.698,0.12,2.557,0.19c0.808,0.067,1.613,0.129,2.429,0.207
			c2.546,0.246,5.13,0.552,7.751,0.926c0,0,7.255,4.188,2.453,4.188c-0.053,0-0.107,0-0.164-0.001
			c-1.572-0.03-5.932-0.466-12.469-0.634l-2.557-0.049c-0.807-0.01-1.638-0.016-2.496-0.016c-15.252,0-38.847,1.767-65.912,10.897
			c0,0-3.771,1.449-9.054,3.579c0.588-0.003,1.173-0.008,1.764-0.008c31.889,0,57.748,4.695,75.699,9.421l2.557,0.688
			c16.572,4.552,25.705,8.92,25.705,8.92l-10.226,36.927c-4.68-2.34-9.601-4.385-14.636-6.178l0.001-0.011
			c-0.282-0.099-0.54-0.185-0.812-0.276c-0.012-0.004-0.023-0.007-0.035-0.01c-0.906-0.309-1.768-0.598-2.555-0.855v-0.014
			c-33.416-11.048-70.549-11.404-75.209-11.404c-0.322,0-0.491,0.002-0.491,0.002s-0.166-0.002-0.49-0.002
			c-4.294,0-36.054,0.303-67.12,8.948c-1.523,0.384-3.721,1.026-6.906,2.069c-0.204,0.064-0.407,0.133-0.611,0.197v0.004
			c-0.264,0.088-0.541,0.181-0.815,0.271c-0.581,0.194-1.163,0.386-1.742,0.587c-0.034,0.012-0.068,0.023-0.103,0.034
			c-0.018,0.007-0.034,0.013-0.052,0.019c-5.473,1.896-10.826,4.084-15.893,6.617l-10.226-36.926c0,0,7.744-3.703,21.907-7.843
			c1.395-0.408,2.849-0.82,4.367-1.233c0.832-0.226,1.688-0.453,2.557-0.679c2.404-0.627,4.962-1.252,7.641-1.866
			c0.109-0.027,0.219-0.051,0.329-0.074c5.413-1.231,11.359-2.415,17.825-3.455c5.212-0.839,10.753-1.586,16.607-2.194
			c0.025-0.042,0.046-0.08,0.073-0.124c6.744-1.948,22.24-7.876,34.531-11.104c4.669-1.225,12.272-3.594,22.187-5.733
			c3.013-0.65,6.236-1.278,9.658-1.847C170.013,147.545,180.229,146.477,191.47,146.477 M191.47,142.477
			c-10.197,0-20.629,0.875-31.001,2.6c-3.243,0.54-6.557,1.173-9.846,1.883c-7.39,1.594-13.563,3.328-18.074,4.593
			c-1.647,0.463-3.071,0.863-4.284,1.181c-7.783,2.043-16.799,5.14-24.042,7.628c-4.36,1.498-8.126,2.791-10.583,3.5l-0.297,0.085
			c-5.341,0.573-10.689,1.288-15.908,2.129c-6.076,0.977-12.149,2.153-18.052,3.496c-0.132,0.028-0.263,0.059-0.395,0.091
			c-2.681,0.613-5.279,1.249-7.723,1.886c-0.882,0.229-1.752,0.46-2.598,0.69c-1.451,0.395-2.902,0.805-4.436,1.253
			c-14.312,4.183-22.185,7.918-22.513,8.074l-3.023,1.445l0.894,3.23l10.226,36.926l1.297,4.684l4.346-2.174
			c4.652-2.324,9.829-4.48,15.389-6.408l0.033-0.011l0.084-0.028l0.005-0.002l0.049-0.017c0.512-0.177,1.018-0.345,1.524-0.514
			l0.18-0.06l0.805-0.269l0.861-0.284c2.69-0.877,4.829-1.518,6.381-1.906l0.048-0.013l0.047-0.015
			c30.741-8.555,62.525-8.803,66.048-8.803l0.45,0.002h0.04h0.041l0.45-0.002c4.035,0,39.857,0.306,72.383,10.693l1.578,0.523
			c0.765,0.252,1.6,0.533,2.479,0.83l0.062,0.023l0.062,0.02l0.153,0.053l0.55,0.197c5.104,1.816,9.878,3.83,14.188,5.985
			l4.346,2.173l1.298-4.683l10.225-36.926l0.896-3.23l-3.022-1.446c-0.387-0.185-9.647-4.576-26.372-9.168l-2.576-0.692
			c-13.062-3.439-32.443-7.396-56.431-8.917c17.334-4.723,35.074-7.111,52.896-7.111c0.842,0,1.656,0.006,2.444,0.016l2.531,0.048
			c4.16,0.107,7.47,0.329,9.661,0.476c1.258,0.085,2.167,0.146,2.811,0.158l0.237,0.002c4.11,0,5.21-2.445,5.491-3.496
			c0.972-3.627-2.666-6.264-5.944-8.156l-0.67-0.387l-0.765-0.109c-2.604-0.372-5.273-0.69-7.932-0.947
			c-0.673-0.065-1.334-0.119-1.996-0.172l-0.49-0.04c-0.879-0.072-1.75-0.137-2.617-0.195c-3.854-0.259-7.779-0.393-11.66-0.398
			h-0.236V142.477z"/>
	</g>
	<g>
		<defs>
			<rect id="SVGID_5_" y="70.197" width="254.088" height="178.803"/>
		</defs>
		<clipPath id="SVGID_6_">
			<use xlink:href="#SVGID_5_"  overflow="visible"/>
		</clipPath>
		<path clip-path="url(#SVGID_6_)" fill="none" stroke="#2F63AF" stroke-miterlimit="10" d="M203.099,104.087
			c-0.781,1.929-1.473,4.003-2.033,6.058c-0.287,1.046-0.543,2.09-0.76,3.103c0.957-0.22,1.893-0.588,2.793-1.054
			c0.326-0.168,0.646-0.348,0.963-0.545c0.549-0.34,1.084-0.716,1.596-1.133c3.709-3.024,6.349-7.902,6.349-12.582
			c0-2.004-0.479-3.199-2.006-2.928c-1.487,0.268-2.974,1.764-4.343,3.941C204.737,100.409,203.874,102.176,203.099,104.087z"/>
	</g>
	<g>
		<defs>
			<rect id="SVGID_7_" y="70.197" width="254.088" height="178.803"/>
		</defs>
		<clipPath id="SVGID_8_">
			<use xlink:href="#SVGID_7_"  overflow="visible"/>
		</clipPath>
		<path clip-path="url(#SVGID_8_)" fill="#FFFFFF" d="M120.373,218.457c0.106,0.004,0.205-0.007,0.295-0.03
			c0.089-0.024,0.166-0.075,0.23-0.155c0.062-0.08,0.095-0.207,0.095-0.379c0-0.188-0.037-0.334-0.111-0.439
			c-0.072-0.105-0.16-0.188-0.259-0.24c-0.1-0.053-0.2-0.087-0.3-0.102c-0.1-0.012-0.177-0.02-0.23-0.02h-0.97v1.36h0.97
			C120.173,218.452,120.266,218.454,120.373,218.457"/>
	</g>
	<g>
		<defs>
			<rect id="SVGID_9_" y="70.197" width="254.088" height="178.803"/>
		</defs>
		<clipPath id="SVGID_10_">
			<use xlink:href="#SVGID_9_"  overflow="visible"/>
		</clipPath>
		<path clip-path="url(#SVGID_10_)" fill="#2F63AF" d="M49.717,217.225v0.002c-6.866,2.574-14.912,6.347-14.912,6.347l14.951,7.675
			C49.756,231.247,49.806,217.189,49.717,217.225"/>
	</g>
	<g>
		<defs>
			<rect id="SVGID_11_" y="70.197" width="254.088" height="178.803"/>
		</defs>
		<clipPath id="SVGID_12_">
			<use xlink:href="#SVGID_11_"  overflow="visible"/>
		</clipPath>
		<polygon clip-path="url(#SVGID_12_)" fill="#FFFFFF" points="20.165,224.496 4.188,207.561 26.934,204.909 31.678,223.886 
			47.717,231.673 47.717,240.195 10.038,244.751 		"/>
	</g>
	<g>
		<defs>
			<rect id="SVGID_13_" y="70.197" width="254.088" height="178.803"/>
		</defs>
		<clipPath id="SVGID_14_">
			<use xlink:href="#SVGID_13_"  overflow="visible"/>
		</clipPath>
		<path clip-path="url(#SVGID_14_)" fill="#2F63AF" d="M25.419,207.1l4.544,18.178l15.753,7.646v5.499l-32.227,3.896l9.09-18.178
			L8.376,209.087L25.419,207.1z M28.447,202.719l-3.491,0.407l-17.043,1.987L0,206.036l5.467,5.795l12.284,13.021l-7.838,15.678
			l-3.327,6.654l7.384-0.895l32.227-3.896l3.52-0.426v-3.546v-5.499v-2.504l-2.253-1.094l-14.072-6.832L29.3,206.129L28.447,202.719
			z"/>
	</g>
	<g>
		<defs>
			<rect id="SVGID_15_" y="70.197" width="254.088" height="178.803"/>
		</defs>
		<clipPath id="SVGID_16_">
			<use xlink:href="#SVGID_15_"  overflow="visible"/>
		</clipPath>
		<path clip-path="url(#SVGID_16_)" fill="#2F63AF" d="M219.565,223.572c0,0-7.568-3.547-14.291-6.109
			c-0.213-0.08-0.422-0.158-0.619-0.229c-0.271-0.1-0.293,8.322-0.207,14.347C204.496,231.562,219.565,223.572,219.565,223.572"/>
	</g>
	<g>
		<defs>
			<rect id="SVGID_17_" y="70.197" width="254.088" height="178.803"/>
		</defs>
		<clipPath id="SVGID_18_">
			<use xlink:href="#SVGID_17_"  overflow="visible"/>
		</clipPath>
		<polygon clip-path="url(#SVGID_18_)" fill="#FFFFFF" points="206.655,240.229 206.655,231.55 222.41,223.886 227.153,204.909 
			249.897,207.562 233.922,224.496 244.05,244.75 		"/>
	</g>
	<g>
		<defs>
			<rect id="SVGID_19_" y="70.197" width="254.088" height="178.803"/>
		</defs>
		<clipPath id="SVGID_20_">
			<use xlink:href="#SVGID_19_"  overflow="visible"/>
		</clipPath>
		<path clip-path="url(#SVGID_20_)" fill="#2F63AF" d="M228.667,207.1l17.043,1.987l-14.203,15.054l9.092,18.18l-31.941-3.863
			v-5.655l15.467-7.522L228.667,207.1z M225.64,202.719l-0.853,3.41l-4.093,16.367l-13.788,6.708l-2.25,1.095v2.502v5.655v3.545
			l3.519,0.426l31.942,3.863l7.384,0.894l-3.326-6.652l-7.84-15.678l12.285-13.021l5.467-5.796l-7.914-0.923l-17.043-1.987
			L225.64,202.719z"/>
	</g>
	<g>
		<defs>
			<rect id="SVGID_21_" y="70.197" width="254.088" height="178.803"/>
		</defs>
		<clipPath id="SVGID_22_">
			<use xlink:href="#SVGID_21_"  overflow="visible"/>
		</clipPath>
		<path clip-path="url(#SVGID_22_)" fill="#FFFFFF" d="M129.132,103.038c-3.874,0-6.686-2.859-6.686-6.799
			c0-4.298,3.324-8.261,7.567-9.022c0.465-0.083,0.932-0.125,1.389-0.125c3.869,0,6.785,2.951,6.785,6.864
			c0,4.252-3.358,8.185-7.646,8.955C130.069,102.995,129.597,103.038,129.132,103.038"/>
	</g>
	<g>
		<defs>
			<rect id="SVGID_23_" y="70.197" width="254.088" height="178.803"/>
		</defs>
		<clipPath id="SVGID_24_">
			<use xlink:href="#SVGID_23_"  overflow="visible"/>
		</clipPath>
		<path clip-path="url(#SVGID_24_)" fill="#2F63AF" d="M131.401,88.591c2.992,0,5.285,2.222,5.285,5.365
			c0,3.526-2.888,6.845-6.41,7.478c-0.393,0.07-0.773,0.104-1.146,0.104c-2.968,0-5.185-2.167-5.185-5.299
			c0-3.528,2.805-6.913,6.331-7.546C130.661,88.624,131.036,88.591,131.401,88.591 M131.401,85.591c-0.547,0-1.103,0.05-1.653,0.149
			c-4.936,0.886-8.801,5.497-8.801,10.499c0,4.731,3.519,8.299,8.185,8.299c0.551,0,1.114-0.051,1.674-0.151
			c4.981-0.895,8.881-5.476,8.881-10.431C139.687,89.187,136.125,85.591,131.401,85.591"/>
	</g>
	<g>
		<defs>
			<rect id="SVGID_25_" y="70.197" width="254.088" height="178.803"/>
		</defs>
		<clipPath id="SVGID_26_">
			<use xlink:href="#SVGID_25_"  overflow="visible"/>
		</clipPath>
		<path clip-path="url(#SVGID_26_)" fill="#FFFFFF" d="M179.688,93.983c-3.873-0.001-6.685-2.86-6.685-6.8
			c0-4.3,3.324-8.263,7.565-9.021c0.466-0.083,0.934-0.126,1.392-0.126c3.867,0,6.783,2.951,6.783,6.864
			c0,4.252-3.358,8.186-7.646,8.955C180.627,93.94,180.153,93.983,179.688,93.983L179.688,93.983z"/>
	</g>
	<g>
		<defs>
			<rect id="SVGID_27_" y="70.197" width="254.088" height="178.803"/>
		</defs>
		<clipPath id="SVGID_28_">
			<use xlink:href="#SVGID_27_"  overflow="visible"/>
		</clipPath>
		<path clip-path="url(#SVGID_28_)" fill="#2F63AF" d="M181.962,79.536c2.993,0,5.282,2.222,5.282,5.364
			c0,3.525-2.884,6.845-6.409,7.478c-0.393,0.071-0.773,0.104-1.146,0.104c-2.969,0-5.185-2.166-5.185-5.299
			c0-3.526,2.806-6.914,6.33-7.545C181.219,79.569,181.597,79.536,181.962,79.536 M181.962,76.536c-0.547,0-1.104,0.05-1.654,0.149
			c-4.937,0.883-8.803,5.494-8.803,10.498c0,4.731,3.52,8.299,8.186,8.299c0.552,0,1.115-0.05,1.675-0.151
			c4.979-0.894,8.88-5.476,8.88-10.431C190.244,80.132,186.685,76.536,181.962,76.536"/>
	</g>
	<g>
		<defs>
			<rect id="SVGID_29_" y="70.197" width="254.088" height="178.803"/>
		</defs>
		<clipPath id="SVGID_30_">
			<use xlink:href="#SVGID_29_"  overflow="visible"/>
		</clipPath>
		<path clip-path="url(#SVGID_30_)" fill="#FFFFFF" d="M122.856,149.473c-5.387,0-8.603-3.81-8.603-10.191
			c0-1.548,0.215-3.384,0.677-5.782l5.724-28.047l15.777-2.826l-6.359,31.163c-0.192,0.875-0.279,1.57-0.279,2.222
			c0,0.217,0.032,0.318,0.042,0.346c-0.001-0.009,0.011-0.013,0.03-0.013c0.056,0,0.189,0.023,0.39,0.023
			c0.208,0,0.446-0.024,0.71-0.071c3.322-0.596,7.84-4.04,10.975-8.31l-4.785-25.49l15.238-2.728l2.649,14.207
			c2.37-3.406,3.664-6,4.194-7.704h-0.028c-2.362,0-4.89-1.549-4.89-5.896c0-3.201,2.521-5.891,6.135-6.539
			c0.451-0.081,0.9-0.122,1.329-0.122c1.569,0,2.979,0.545,4.075,1.574c1.545,1.45,2.396,3.82,2.396,6.673
			c0,4.012-1.815,8.453-5.89,14.4c-1.465,2.142-3.248,4.522-5.434,7.258l0.592,3.179c0.287,1.513,0.767,4.045,1.662,4.379
			c0.096,0.036,0.211,0.054,0.344,0.054c0.115,0,0.234-0.012,0.363-0.036c2.185-0.39,4.495-3.169,5.562-6.654v-0.183l0.093-0.189
			l5.668-27.773l15.775-2.825l-6.358,31.162c-0.192,0.876-0.278,1.572-0.278,2.223c0,0.186,0.012,0.344,0.041,0.488
			c0.035,0.002,0.069,0.003,0.106,0.003c0.215,0,0.479-0.028,0.782-0.083c1.546-0.277,3.22-1.799,4.445-4.016
			c-0.002-0.025-0.002-0.049-0.002-0.074c0-4.43,1.074-9.984,2.875-14.856c2.059-5.579,6.082-13.076,13.547-17.11
			c0.894-0.484,1.838-0.913,2.805-1.277c1.359-0.511,2.688-0.88,4.055-1.125c1.133-0.202,2.188-0.304,3.145-0.304
			c5.174,0,8.021,2.978,8.021,8.386c0,7.615-5.332,15.353-13.583,19.715c-0.957,0.506-1.856,0.926-2.754,1.281
			c-0.142,0.057-0.291,0.11-0.438,0.163l-0.188,0.067c-0.558,0.206-1.086,0.386-1.591,0.541c-0.02,0.313-0.033,0.611-0.033,0.872
			c0,1.575,0.244,2.464,0.447,2.933c0.316,0.718,0.685,0.882,1.217,0.923c0.072,0.005,0.145,0.007,0.216,0.007
			c0.224,0,0.472-0.024,0.736-0.071c0.239-0.043,0.518-0.114,0.851-0.22c2.262-0.718,5.276-2.778,7.506-5.127l4.592-4.839
			l-1.172,6.568c-1.179,6.592-4.336,11.278-9.394,13.928c-0.878,0.461-1.839,0.866-2.853,1.204c-1.053,0.351-2.142,0.63-3.232,0.826
			c-1.273,0.229-2.493,0.344-3.623,0.344c-0.698,0-1.378-0.044-2.02-0.132c-2.812-0.384-5.039-1.62-6.588-3.626
			c-1.438,1.805-3.029,3.33-4.757,4.554c-2.387,1.688-5.001,2.796-7.774,3.293c-0.746,0.133-1.493,0.201-2.223,0.201l-0.166-0.001
			c-3.049-0.04-5.428-1.317-6.889-3.608c-1.475,1.777-3.102,3.251-4.865,4.408c-2.139,1.401-4.469,2.333-6.928,2.774
			c-0.73,0.131-1.434,0.197-2.088,0.197c-4.665,0-7.012-3.318-8.436-7.346c-5.969,6.776-12.904,11.345-19.044,12.446
			C124.326,149.401,123.571,149.473,122.856,149.473 M209.964,97.129c-0.654,0.343-1.57,1.222-2.613,2.883
			c-0.822,1.307-1.629,2.931-2.397,4.827c-0.625,1.539-1.211,3.239-1.714,4.963c0.41-0.266,0.796-0.545,1.154-0.837
			c3.41-2.779,5.611-7.109,5.611-11.031C210.005,97.584,209.987,97.323,209.964,97.129"/>
	</g>
	<g>
		<defs>
			<rect id="SVGID_31_" y="70.197" width="254.088" height="178.803"/>
		</defs>
		<clipPath id="SVGID_32_">
			<use xlink:href="#SVGID_31_"  overflow="visible"/>
		</clipPath>
		<path clip-path="url(#SVGID_32_)" fill="#2F63AF" d="M212.149,90.602c4.797,0,6.023,2.967,6.023,6.387
			c0,7.328-5.486,14.229-12.52,17.946c-0.834,0.442-1.685,0.845-2.555,1.191c-0.193,0.077-0.389,0.14-0.582,0.212
			c-0.914,0.337-1.838,0.637-2.774,0.859c-0.078,0.813-0.157,1.71-0.157,2.431c0,1.614,0.223,2.833,0.614,3.732
			c0.612,1.403,1.642,2.023,2.899,2.117c0.119,0.009,0.241,0.014,0.365,0.014c0.35,0,0.713-0.036,1.088-0.103
			c0.356-0.063,0.727-0.163,1.102-0.282c2.828-0.898,6.09-3.271,8.354-5.656c-1.179,6.599-4.357,10.414-8.354,12.508
			c-0.818,0.43-1.676,0.785-2.555,1.078c-0.961,0.321-1.949,0.574-2.955,0.755c-1.151,0.206-2.244,0.312-3.269,0.312
			c-0.608,0-1.192-0.037-1.75-0.113c-3.181-0.435-5.502-2.155-6.63-5.444c-1.939,3.123-4.075,5.259-6.141,6.72
			c-2.619,1.854-5.123,2.627-6.971,2.958c-0.646,0.116-1.271,0.169-1.871,0.169c-0.047,0-0.093,0-0.139-0.001
			c-3.212-0.042-5.674-1.79-6.363-5.795c-2.076,3.333-4.351,5.503-6.516,6.922c-2.311,1.515-4.495,2.177-6.184,2.479
			c-0.615,0.11-1.192,0.166-1.734,0.166c-3.962,0-6.01-2.997-7.561-9.557c-5.207,6.781-12.82,13.353-20.272,14.688
			c-0.656,0.117-1.288,0.177-1.892,0.177c-3.898,0-6.602-2.502-6.602-8.19c0-1.524,0.241-3.329,0.641-5.403l5.449-26.697
			l11.54-2.067l-5.771,28.275c-0.239,1.086-0.318,1.902-0.318,2.621c0,1.642,0.968,2.357,2.462,2.357
			c0.33,0,0.687-0.035,1.062-0.103c4.088-0.733,9.297-4.79,12.744-9.813l-4.57-24.342l11.3-2.023l3.124,16.748
			c4.729-5.976,7.613-11.22,7.613-14.104c0-0.321,0-0.642-0.08-0.947c-0.48,0.166-0.963,0.333-1.36,0.403
			c-0.315,0.057-0.608,0.084-0.879,0.084c-2.132,0-2.89-1.69-2.89-3.895c0-2.404,2.002-4.124,4.488-4.571
			c0.342-0.061,0.666-0.09,0.975-0.09c1.105,0,2.008,0.376,2.705,1.032c1.172,1.099,1.769,2.986,1.769,5.215
			c0,3.649-1.778,7.778-5.539,13.27c-1.606,2.346-3.569,4.937-5.919,7.852l0.723,3.876c0.449,2.367,0.957,5.341,2.967,6.091
			c0.312,0.116,0.656,0.181,1.045,0.181c0.224,0,0.461-0.022,0.714-0.067c3.123-0.559,6.006-4.117,7.21-8.334
			c0-0.003,0-0.006,0.001-0.008l5.448-26.697l1.412-0.253l10.125-1.813l-2.139,10.488l-1.476,7.222l-1.576,7.725l-0.578,2.84
			c-0.239,1.087-0.319,1.902-0.319,2.622c0,0.456,0.053,0.825,0.142,1.147c0.206,0.756,0.659,1.16,1.377,1.291
			c0.192,0.035,0.401,0.053,0.63,0.053c0.336,0,0.713-0.038,1.137-0.114c2.396-0.43,4.645-2.624,6.107-5.525
			c-0.004-0.18-0.018-0.348-0.018-0.535c0-3.6,0.799-8.885,2.75-14.162c2.338-6.334,6.34-12.649,12.623-16.044
			c0.812-0.44,1.664-0.829,2.555-1.164c1.168-0.439,2.397-0.794,3.705-1.028C210.403,90.689,211.329,90.602,212.149,90.602
			 M200.308,113.249c0.957-0.221,1.889-0.588,2.793-1.055c0.325-0.168,0.646-0.348,0.961-0.545c0.549-0.34,1.084-0.716,1.595-1.133
			c3.709-3.023,6.351-7.901,6.351-12.582c0-1.814-0.396-2.966-1.602-2.966c-0.127,0-0.262,0.013-0.405,0.039
			c-1.485,0.267-2.976,1.763-4.344,3.941c-0.919,1.461-1.781,3.227-2.556,5.14c-0.783,1.928-1.474,4.003-2.037,6.057
			C200.776,111.192,200.521,112.235,200.308,113.249 M212.149,86.602c-1.072,0-2.248,0.113-3.496,0.336
			c-1.489,0.268-2.932,0.667-4.406,1.222c-1.051,0.395-2.077,0.863-3.053,1.391c-8.012,4.328-12.291,12.273-14.471,18.175
			c-0.793,2.145-1.449,4.419-1.945,6.681l1.441-7.059l2.141-10.488l1.178-5.776l-5.803,1.039l-10.125,1.812l-1.414,0.253
			l-2.67,0.479l-0.381,1.861c-0.488-1.048-1.135-1.959-1.922-2.698c-1.475-1.384-3.356-2.115-5.443-2.115
			c-0.547,0-1.111,0.051-1.68,0.153c-3.547,0.637-6.266,2.876-7.313,5.797l-2.702,0.484l-11.3,2.024l-3.97,0.711l-1.64,0.294
			l-11.539,2.067l-2.671,0.479l-0.542,2.658l-5.449,26.697c-0.495,2.567-0.722,4.524-0.722,6.203c0,8.988,5.477,12.19,10.602,12.19
			c0.834,0,1.708-0.081,2.597-0.24c5.841-1.046,12.301-4.962,18.066-10.813c1.662,3.051,4.393,5.745,9.062,5.745
			c0.771,0,1.593-0.077,2.44-0.229c2.726-0.488,5.307-1.521,7.67-3.07c1.312-0.86,2.553-1.877,3.715-3.046
			c1.773,1.63,4.136,2.537,6.919,2.573l0.19,0.001c0.846,0,1.713-0.077,2.572-0.231c3.066-0.549,5.952-1.771,8.581-3.631
			c1.306-0.924,2.537-2.004,3.688-3.231c1.687,1.412,3.789,2.32,6.228,2.653c0.731,0.1,1.503,0.15,2.292,0.15
			c1.246,0,2.585-0.126,3.975-0.375c1.188-0.213,2.371-0.516,3.517-0.899c1.112-0.37,2.173-0.818,3.147-1.33
			c5.629-2.95,9.139-8.114,10.43-15.346l2.345-13.136l-2.472,2.604c2.779-3.869,4.355-8.262,4.355-12.632
			C222.174,90.485,218.427,86.602,212.149,86.602 M156.063,108.552l-0.207-1.113c0.205,0.111,0.412,0.211,0.625,0.299
			C156.356,107.993,156.218,108.265,156.063,108.552 M132.101,133.858l4.637-22.73l3.072,16.358
			C137.321,130.656,134.354,132.893,132.101,133.858 M203.599,120.201c0.102-0.036,0.203-0.073,0.308-0.112l0.155-0.055
			c0.176-0.062,0.353-0.126,0.527-0.196c0.948-0.377,1.915-0.826,2.938-1.367c1.828-0.967,3.524-2.091,5.063-3.339l-1.483,1.565
			c-1.984,2.091-4.724,3.98-6.662,4.597c-0.242,0.077-0.441,0.13-0.59,0.156c-0.03,0.005-0.06,0.01-0.086,0.014
			C203.7,121.211,203.628,120.808,203.599,120.201 M159.062,124.151c1.961-2.479,3.59-4.668,4.953-6.659
			c0.435-0.635,0.846-1.256,1.232-1.862l-1.618,7.934l-0.176,0.376v0.289c-0.834,2.517-2.3,4.209-3.366,4.791
			c-0.25-0.744-0.468-1.892-0.602-2.594l-0.041-0.214L159.062,124.151z M182.812,124.056l0.358-1.762l1.317-6.458
			c-0.461,2.43-0.725,4.812-0.758,6.966C183.435,123.282,183.122,123.702,182.812,124.056"/>
	</g>
	<g>
		<defs>
			<rect id="SVGID_33_" y="70.197" width="254.088" height="178.803"/>
		</defs>
		<clipPath id="SVGID_34_">
			<use xlink:href="#SVGID_33_"  overflow="visible"/>
		</clipPath>
		<path clip-path="url(#SVGID_34_)" fill="#FFFFFF" d="M61.995,188.438l-0.923,0.23l0.896,3.568l0.94-0.236
			c1.456-0.366,2.049-1.157,1.746-2.361C64.36,188.466,63.468,188.068,61.995,188.438"/>
	</g>
	<g>
		<defs>
			<rect id="SVGID_35_" y="70.197" width="254.088" height="178.803"/>
		</defs>
		<clipPath id="SVGID_36_">
			<use xlink:href="#SVGID_35_"  overflow="visible"/>
		</clipPath>
		<path clip-path="url(#SVGID_36_)" fill="#FFFFFF" d="M81.238,187.924c1.495-0.271,2.241-1.076,2.029-2.247
			c-0.209-1.151-1.155-1.651-2.649-1.379l-0.72,0.132l0.656,3.618L81.238,187.924z"/>
	</g>
	<g>
		<defs>
			<rect id="SVGID_37_" y="70.197" width="254.088" height="178.803"/>
		</defs>
		<clipPath id="SVGID_38_">
			<use xlink:href="#SVGID_37_"  overflow="visible"/>
		</clipPath>
		<polygon clip-path="url(#SVGID_38_)" fill="#FFFFFF" points="145.388,186.527 148.849,186.842 147.536,182.314 		"/>
	</g>
	<g>
		<defs>
			<rect id="SVGID_39_" y="70.197" width="254.088" height="178.803"/>
		</defs>
		<clipPath id="SVGID_40_">
			<use xlink:href="#SVGID_39_"  overflow="visible"/>
		</clipPath>
		<path clip-path="url(#SVGID_40_)" fill="#FFFFFF" d="M61.524,169.252c-3.611,0-6.987-0.66-10.036-1.963
			c-0.938-0.4-1.88-0.881-2.799-1.432c-2.909-1.743-5.484-4.152-7.653-7.163l-0.577-0.8l0.284-0.944
			c2.288-7.633,3.829-12.191,5.614-17.468c0.464-1.371,1.614-4.793,1.614-4.793c-7.406-3.199-12.753-8.086-16.326-14.909l-0.2-0.419
			c-0.83-1.741-1.3-2.895-1.313-6.364l0.005-0.144c0.444-6.512,2.308-12.66,5.54-18.269l1.846-2.921
			c3.011-4.346,6.716-8.033,11.058-11.03c0.861-0.593,1.761-1.168,2.676-1.708c2.879-1.698,5.965-3.084,9.171-4.12
			c5.36-1.731,10.711-2.609,15.903-2.609c20.525,0,36.352,13.769,39.382,34.261c0,0,0.085,0.514,0.104,0.655
			c1.673,12.503-3.7,24.99-6.089,29.778c-0.212,0.428-0.426,0.852-0.642,1.262C102.221,151.138,80.805,169.252,61.524,169.252
			L61.524,169.252z M66.537,90.571c3.384,0.868,5.771,2.538,7.095,4.964c2.648,4.853,0.416,11.569-1.553,17.495
			c-0.269,0.81-0.534,1.608-0.783,2.39c-1.992,6.253-4.448,13.164-6.823,19.848c-2.967,8.353-5.791,16.3-7.726,22.903
			c4.824-0.462,9.344-1.234,14.03-3.426c15.269-7.147,28.784-27.329,28.923-43.191c0.106-12.074-5.448-23.828-12.92-27.342
			c-1.952-0.917-4.332-1.382-7.074-1.382c-8.91,0-20.015,5.023-25.83,11.684l-0.093,0.113c-0.791,0.917-1.596,2.005-2.387,3.229
			c-3.951,6.112-7.364,15.609-5.522,22.015c0.753,2.619,2.287,4.437,4.689,5.559c0.415,0.195,0.861,0.369,1.332,0.52l12.879-35.831
			L66.537,90.571z"/>
	</g>
	<g>
		<defs>
			<rect id="SVGID_41_" y="70.197" width="254.088" height="178.803"/>
		</defs>
		<clipPath id="SVGID_42_">
			<use xlink:href="#SVGID_41_"  overflow="visible"/>
		</clipPath>
		<path clip-path="url(#SVGID_42_)" fill="#2F63AF" d="M76.332,74.197c19.341,0,34.472,12.73,37.403,32.554
			c0.031,0.211,0.072,0.415,0.101,0.627c1.31,9.793-1.99,20.787-5.896,28.621c-0.206,0.414-0.413,0.824-0.622,1.22
			c-6.757,12.781-27.882,30.033-45.793,30.033c-3.222,0-6.34-0.56-9.252-1.803c-0.872-0.371-1.724-0.81-2.556-1.308
			c-2.584-1.549-4.966-3.715-7.058-6.617c2.867-9.565,4.536-14.217,7.058-21.749c0.241-0.717,0.486-1.451,0.743-2.227
			c-0.25-0.095-0.496-0.197-0.743-0.297c-6.765-2.72-12.473-7.091-16.3-14.398c-0.783-1.666-1.271-2.422-1.284-5.864
			c0.43-6.316,2.286-12.216,5.277-17.407l1.803-2.85c2.816-4.06,6.37-7.599,10.504-10.452c0.829-0.572,1.682-1.116,2.556-1.632
			c2.724-1.606,5.659-2.934,8.771-3.939C66.322,75.005,71.459,74.197,76.332,74.197 M53.158,128.349l12.882-35.84
			c10.9,2.795,6.107,13.649,3.35,22.303c-4.752,14.914-12.049,33.306-15.35,45.596c6.048-0.467,11.72-1.108,17.585-3.851
			c16.829-7.877,29.935-29.061,30.074-44.985c0.115-12.944-5.879-25.318-14.069-29.17c-2.299-1.08-5.011-1.572-7.924-1.572
			c-9.498,0-21.11,5.236-27.337,12.369c-0.032,0.037-0.064,0.079-0.097,0.116c-0.862,1-1.724,2.168-2.556,3.456
			c-6.133,9.487-10.532,25.552,0,30.472c0.77,0.36,1.621,0.659,2.556,0.893C52.565,128.208,52.85,128.289,53.158,128.349
			 M76.332,70.197c-5.401,0-10.959,0.911-16.518,2.707c-3.346,1.08-6.567,2.527-9.573,4.3c-0.955,0.563-1.896,1.164-2.796,1.785
			c-4.541,3.133-8.416,6.991-11.519,11.465l-0.048,0.069l-0.045,0.072l-1.803,2.849l-0.044,0.07l-0.042,0.072
			c-3.385,5.876-5.337,12.313-5.802,19.132l-0.01,0.143l0.001,0.144c0.014,3.812,0.578,5.269,1.507,7.217l0.158,0.334l0.036,0.077
			l0.04,0.076c3.519,6.721,8.648,11.667,15.629,15.051c-0.361,1.073-0.705,2.093-1.041,3.084c-1.79,5.295-3.337,9.868-5.635,17.533
			l-0.566,1.888l1.153,1.6c2.33,3.231,5.105,5.824,8.247,7.708c0.999,0.599,2.023,1.121,3.043,1.557
			c3.298,1.408,6.939,2.123,10.821,2.123c20.028,0,42.229-18.733,49.329-32.164c0.224-0.424,0.446-0.863,0.667-1.307
			c2.468-4.95,8.025-17.881,6.279-30.933c-0.022-0.164-0.048-0.326-0.076-0.487l-0.03-0.187
			C114.509,84.652,97.888,70.197,76.332,70.197 M65.747,88.304c4.538-2.16,9.536-3.474,13.96-3.474c2.446,0,4.539,0.401,6.223,1.192
			c6.698,3.151,11.869,14.358,11.77,25.515c-0.117,13.488-11.551,33.806-27.77,41.397c-3.451,1.614-6.85,2.417-10.385,2.903
			c1.85-5.93,4.279-12.766,6.813-19.899c2.381-6.699,4.842-13.627,6.844-19.911c0.247-0.774,0.51-1.565,0.776-2.366
			c2.098-6.313,4.475-13.467,1.41-19.084c-1.6-2.932-4.41-4.932-8.353-5.943L65.747,88.304z M55.413,95.796
			c1.924-2.198,4.464-4.207,7.312-5.887l-0.448,1.247l-11.541,32.108c-1.479-0.875-2.422-2.146-2.939-3.946
			c-1.595-5.547,1.448-14.449,5.28-20.376c0.741-1.147,1.49-2.161,2.226-3.014C55.335,95.89,55.374,95.843,55.413,95.796"/>
	</g>
	<g>
		<defs>
			<rect id="SVGID_43_" y="70.197" width="254.088" height="178.803"/>
		</defs>
		<clipPath id="SVGID_44_">
			<use xlink:href="#SVGID_43_"  overflow="visible"/>
		</clipPath>
		<path clip-path="url(#SVGID_44_)" fill="#FFFFFF" d="M205.655,176.021l-2.557-0.688c-17.953-4.726-43.81-9.422-75.699-9.422
			c-0.592,0-1.177,0.005-1.765,0.008c5.284-2.13,9.056-3.579,9.056-3.579c28.592-9.645,53.309-11.073,68.408-10.881l2.557,0.049
			c6.535,0.168,10.896,0.605,12.47,0.634c5.127,0.095-2.289-4.187-2.289-4.187c-2.621-0.374-5.205-0.679-7.751-0.925
			c-0.816-0.078-1.621-0.141-2.43-0.207c-0.856-0.071-1.709-0.134-2.557-0.191c-3.904-0.262-7.707-0.384-11.399-0.388
			c-11.331-0.015-21.628,1.057-30.574,2.545c-3.422,0.57-6.647,1.198-9.658,1.847c-9.915,2.14-17.519,4.508-22.188,5.734
			c-12.291,3.226-27.786,9.155-34.53,11.103c-0.026,0.044-0.047,0.082-0.072,0.124c-5.854,0.608-11.396,1.356-16.607,2.194
			c-6.467,1.04-12.412,2.223-17.825,3.454c-0.11,0.023-0.22,0.048-0.33,0.076c-2.678,0.613-5.236,1.238-7.641,1.865
			c-0.868,0.226-1.724,0.453-2.556,0.68c-1.519,0.412-2.972,0.824-4.367,1.232c-14.163,4.139-21.907,7.844-21.907,7.844
			l10.225,36.926c5.068-2.534,10.421-4.723,15.894-6.619c0.018-0.005,0.034-0.012,0.052-0.018c0.034-0.012,0.069-0.023,0.103-0.035
			c0.579-0.2,1.16-0.393,1.741-0.586c0.274-0.092,0.551-0.185,0.815-0.271v-0.003c0.204-0.065,0.407-0.133,0.611-0.198
			c3.186-1.043,5.383-1.685,6.906-2.068c33.405-9.297,67.611-8.947,67.611-8.947s39.976-0.408,75.698,11.404v0.012
			c0.789,0.259,1.65,0.548,2.557,0.855c0.013,0.004,0.022,0.008,0.033,0.012c0.273,0.092,0.53,0.178,0.813,0.275l-0.001,0.012
			c5.035,1.793,9.956,3.838,14.635,6.177l10.225-36.927C231.36,184.941,222.228,180.573,205.655,176.021 M44.031,199.352
			l-1.471,0.446l1.33,4.358l-2.257,0.689l-3.557-11.656l3.395-1.037c1.523-0.465,2.415-0.488,3.342-0.082
			c0.973,0.43,1.692,1.281,2.039,2.42C47.557,196.801,46.516,198.591,44.031,199.352 M57.493,200.16l-1.721-2.174l-3.499,0.996
			l-1.287,0.365l-0.355,2.764l-0.914,0.26l-1.496,0.426l1.496-12.055l0.167-1.35l1.707-0.485l0.682,0.862l7.665,9.692L57.493,200.16
			z M63.939,193.779l-1.491,0.373l1.11,4.42l-2.29,0.574l-2.967-11.818l3.443-0.865c1.544-0.387,2.436-0.365,3.342,0.086
			c0.949,0.479,1.625,1.364,1.915,2.52C67.59,191.41,66.459,193.146,63.939,193.779 M70.669,196.828l-2.601-11.898l6.593-1.441
			l0.441,2.019l-4.27,0.935l0.574,2.627l4.092-0.896l0.437,2.002l-4.091,0.896l0.706,3.232l4.271-0.934l0.442,2.02L70.669,196.828z
			 M85.277,193.886l-4.116-4.237l-0.288,0.054l0.875,4.825l-2.341,0.425l-2.175-11.993l3.475-0.63
			c1.333-0.242,2.375-0.134,3.182,0.315c0.87,0.494,1.507,1.438,1.7,2.5c0.215,1.188-0.111,2.362-0.889,3.101
			c-0.347,0.341-0.58,0.496-1.223,0.741l4.681,4.378L85.277,193.886z M98.991,192.174c-3.541,0.438-6.696-1.974-7.127-5.461
			c-0.437-3.541,2.047-6.705,5.624-7.146c1.054-0.129,1.914-0.032,3.03,0.346l0.343,2.777c-0.957-0.729-1.971-1.027-3.115-0.887
			c-2.251,0.276-3.738,2.27-3.451,4.594c0.285,2.306,2.207,3.838,4.459,3.559c1.107-0.137,2.036-0.675,2.804-1.618l0.344,2.779
			C100.693,191.779,99.971,192.055,98.991,192.174 M109.591,191.249c-3.687,0.271-6.735-2.298-6.997-5.894
			c-0.262-3.612,2.417-6.633,6.103-6.902c3.65-0.266,6.738,2.336,6.999,5.932C115.958,187.979,113.278,190.98,109.591,191.249
			 M129.462,190.199l-1.193-7.488L125,190.4l-0.641,0.009l-3.334-7.606l-1.15,7.518l-2.379,0.029l2.114-12.451l1.628-0.021
			l3.411,7.953l3.375-8.038l1.629-0.02l2.187,12.396L129.462,190.199z M136.417,185.871l-0.229,4.552l-2.357-0.116l0.607-12.176
			l3.547,0.178c1.592,0.08,2.438,0.359,3.173,1.059c0.771,0.734,1.157,1.779,1.099,2.968c-0.121,2.412-1.708,3.744-4.304,3.615
			L136.417,185.871z M150.228,191.471l-0.824-2.647l-4.954-0.452l-1.325,2.451l-2.496-0.229l6.378-11.909l1.767,0.162l3.99,12.855
			L150.228,191.471z M165.354,193.702l-1.61-0.228l-6.192-9.424l-1.146,8.151l-2.355-0.333l1.737-12.333l1.63,0.229l6.171,9.438
			l1.145-8.133l2.354,0.332L165.354,193.702z M173.043,194.818l-2.341-0.418l0.98-5.491l-2.961-7.238l2.756,0.493l1.85,4.623
			l3.281-3.706l2.791,0.499l-5.375,5.748L173.043,194.818z M176.265,198.032l-1.347-0.45l2.843-4.439l1.967,0.625L176.265,198.032z
			 M187.231,197.693l-2.306-0.504l2.603-11.901l2.306,0.504L187.231,197.693z M203.099,192.4l-2.134,8.789l-1.582-0.385
			l-5.237-9.988l-1.941,8l-2.312-0.562l2.941-12.104l1.6,0.388l5.213,10.001l1.94-7.98l1.513,0.368l0.797,0.193L203.099,192.4z
			 M209.794,201.323c1.076,0.295,2.139,0.149,3.209-0.429l-0.74,2.697c-1.371,0.154-2.142,0.135-3.094-0.128
			c-1.479-0.403-2.686-1.271-3.514-2.391c-1.102-1.492-1.526-3.438-0.997-5.371c0.213-0.771,0.559-1.464,0.997-2.072
			c1.521-2.103,4.228-3.133,6.923-2.394c1.022,0.281,1.78,0.697,2.67,1.472l-0.74,2.699c-0.608-1.038-1.431-1.701-2.542-2.005
			c-2.188-0.601-4.32,0.674-4.939,2.931C206.413,198.575,207.606,200.725,209.794,201.323 M216.989,204.227
			c-0.229,0.771-1.02,1.187-1.791,0.957c-0.754-0.224-1.188-1.02-0.965-1.772c0.226-0.754,1.021-1.187,1.774-0.964
			C216.78,202.674,217.213,203.471,216.989,204.227"/>
	</g>
	<g>
		<defs>
			<rect id="SVGID_45_" y="70.197" width="254.088" height="178.803"/>
		</defs>
		<clipPath id="SVGID_46_">
			<use xlink:href="#SVGID_45_"  overflow="visible"/>
		</clipPath>
		<path clip-path="url(#SVGID_46_)" fill="#FFFFFF" d="M137.649,180.271l-0.95-0.049l-0.185,3.676l0.969,0.047
			c1.5,0.076,2.3-0.508,2.359-1.75C139.905,180.989,139.168,180.348,137.649,180.271"/>
	</g>
	<g>
		<defs>
			<rect id="SVGID_47_" y="70.197" width="254.088" height="178.803"/>
		</defs>
		<clipPath id="SVGID_48_">
			<use xlink:href="#SVGID_47_"  overflow="visible"/>
		</clipPath>
		<path clip-path="url(#SVGID_48_)" fill="#FFFFFF" d="M42.911,197.625c1.435-0.438,1.989-1.257,1.626-2.447
			c-0.353-1.154-1.264-1.508-2.717-1.064l-0.91,0.277l1.073,3.518L42.911,197.625z"/>
	</g>
	<g>
		<defs>
			<rect id="SVGID_49_" y="70.197" width="254.088" height="178.803"/>
		</defs>
		<clipPath id="SVGID_50_">
			<use xlink:href="#SVGID_49_"  overflow="visible"/>
		</clipPath>
		<path clip-path="url(#SVGID_50_)" fill="#FFFFFF" d="M108.829,180.773c-2.226,0.162-3.937,2.121-3.754,4.384
			c0.164,2.245,2.121,3.936,4.366,3.772c2.244-0.162,3.937-2.121,3.772-4.385C113.05,182.302,111.092,180.609,108.829,180.773"/>
	</g>
	<g>
		<defs>
			<rect id="SVGID_51_" y="70.197" width="254.088" height="178.803"/>
		</defs>
		<clipPath id="SVGID_52_">
			<use xlink:href="#SVGID_51_"  overflow="visible"/>
		</clipPath>
		<polygon clip-path="url(#SVGID_52_)" fill="#FFFFFF" points="51.687,192.588 51.199,197.291 52.273,196.984 54.542,196.34 
			52.273,193.357 		"/>
	</g>
	<g>
		<defs>
			<rect id="SVGID_53_" y="70.197" width="254.088" height="178.803"/>
		</defs>
		<clipPath id="SVGID_54_">
			<use xlink:href="#SVGID_53_"  overflow="visible"/>
		</clipPath>
		<polygon clip-path="url(#SVGID_54_)" fill="#FFFFFF" points="81.964,216.966 81.964,214.729 74.685,214.729 74.685,225.509 
			81.964,225.509 81.964,223.259 76.92,223.259 76.92,221.404 81.772,221.404 81.772,219.154 76.92,219.154 76.92,216.966 		"/>
	</g>
	<g>
		<defs>
			<rect id="SVGID_55_" y="70.197" width="254.088" height="178.803"/>
		</defs>
		<clipPath id="SVGID_56_">
			<use xlink:href="#SVGID_55_"  overflow="visible"/>
		</clipPath>
		<path clip-path="url(#SVGID_56_)" fill="#FFFFFF" d="M88.993,223.236c-0.255,0.104-0.603,0.154-1.044,0.154
			c-0.275,0-0.52-0.037-0.735-0.109c-0.216-0.074-0.4-0.165-0.552-0.272c-0.152-0.108-0.27-0.22-0.353-0.338
			s-0.125-0.221-0.125-0.31h-2.235c0,0.44,0.105,0.861,0.317,1.258c0.21,0.396,0.499,0.74,0.867,1.037
			c0.368,0.294,0.791,0.529,1.272,0.705c0.48,0.176,0.995,0.266,1.544,0.266c0.755,0,1.397-0.107,1.926-0.324
			c0.53-0.215,0.958-0.484,1.287-0.81c0.328-0.323,0.568-0.67,0.72-1.044c0.153-0.371,0.229-0.717,0.229-1.028
			c0-1.098-0.378-1.948-1.133-2.552s-1.828-0.904-3.22-0.904c-0.53,0-0.907-0.111-1.132-0.338c-0.079-0.079-0.133-0.165-0.163-0.258
			c-0.029-0.094-0.053-0.18-0.073-0.258c-0.02-0.098-0.029-0.195-0.029-0.295l0.014-0.015V217.7c0-0.069,0.02-0.158,0.059-0.267
			c0.04-0.106,0.116-0.209,0.228-0.309c0.113-0.1,0.275-0.184,0.486-0.25c0.21-0.068,0.492-0.104,0.845-0.104
			c0.363,0,0.657,0.045,0.882,0.135c0.226,0.087,0.397,0.197,0.515,0.328c0.118,0.134,0.196,0.274,0.236,0.429
			c0.038,0.151,0.058,0.287,0.058,0.403v-0.029l2.235,0.072c0-0.037-0.005-0.143-0.014-0.309c-0.01-0.167-0.044-0.367-0.103-0.603
			c-0.059-0.234-0.157-0.49-0.294-0.765c-0.138-0.274-0.329-0.539-0.574-0.795c-0.706-0.734-1.686-1.103-2.941-1.103
			c-1.275,0-2.27,0.356-2.985,1.071c-0.196,0.197-0.35,0.4-0.463,0.61c-0.113,0.211-0.201,0.41-0.265,0.597
			c-0.064,0.187-0.106,0.355-0.125,0.508c-0.02,0.15-0.029,0.263-0.029,0.33c0,0.078,0.002,0.203,0.007,0.375
			c0.005,0.172,0.031,0.371,0.081,0.604c0.049,0.23,0.132,0.477,0.25,0.736c0.117,0.26,0.284,0.507,0.499,0.74
			c0.108,0.129,0.246,0.258,0.413,0.383c0.166,0.129,0.362,0.242,0.588,0.347c0.225,0.103,0.487,0.188,0.787,0.257
			c0.298,0.069,0.634,0.104,1.007,0.104c0.49,0,0.902,0.046,1.235,0.14c0.333,0.093,0.569,0.224,0.706,0.39
			c0.078,0.1,0.125,0.207,0.14,0.324c0.014,0.117,0.021,0.234,0.021,0.352c-0.068,0.207-0.166,0.371-0.293,0.492
			C89.438,223.021,89.248,223.133,88.993,223.236"/>
	</g>
	<g>
		<defs>
			<rect id="SVGID_57_" y="70.197" width="254.088" height="178.803"/>
		</defs>
		<clipPath id="SVGID_58_">
			<use xlink:href="#SVGID_57_"  overflow="visible"/>
		</clipPath>
		<polygon clip-path="url(#SVGID_58_)" fill="#FFFFFF" points="98.889,225.521 98.889,216.966 101.389,216.966 101.389,214.729 
			94.139,214.729 94.139,216.966 96.639,216.966 96.639,225.521 		"/>
	</g>
	<g>
		<defs>
			<rect id="SVGID_59_" y="70.197" width="254.088" height="178.803"/>
		</defs>
		<clipPath id="SVGID_60_">
			<use xlink:href="#SVGID_59_"  overflow="visible"/>
		</clipPath>
		<path clip-path="url(#SVGID_60_)" fill="#FFFFFF" d="M105.096,223.936h4.352l0.559,1.588h2.441l-3.853-10.793h-2.646
			l-3.853,10.793h2.441L105.096,223.936z M107.271,217.848l1.382,3.866h-2.764L107.271,217.848z"/>
	</g>
	<g>
		<defs>
			<rect id="SVGID_61_" y="70.197" width="254.088" height="178.803"/>
		</defs>
		<clipPath id="SVGID_62_">
			<use xlink:href="#SVGID_61_"  overflow="visible"/>
		</clipPath>
		<path clip-path="url(#SVGID_62_)" fill="#FFFFFF" d="M120.926,219.104c0.043-0.111,0.077-0.233,0.103-0.367
			c0.023-0.131,0.036-0.295,0.036-0.492c0-0.637-0.122-1.178-0.367-1.624c-0.246-0.447-0.55-0.81-0.912-1.089
			c-0.362-0.278-0.757-0.479-1.184-0.604c-0.426-0.121-0.821-0.184-1.184-0.184h-3.735v10.779h3.735
			c0.285,0,0.599-0.004,0.942-0.008c0.343-0.004,0.685-0.035,1.029-0.088c0.342-0.056,0.677-0.143,1-0.267
			c0.324-0.122,0.61-0.296,0.86-0.521c0.25-0.228,0.451-0.515,0.603-0.86c0.151-0.349,0.228-0.783,0.228-1.302
			c0-0.021-0.01-0.133-0.03-0.338c-0.018-0.207-0.076-0.449-0.168-0.729c-0.094-0.278-0.244-0.57-0.449-0.875
			c-0.205-0.304-0.496-0.563-0.867-0.78c0.079-0.126,0.147-0.238,0.205-0.337C120.831,219.322,120.88,219.218,120.926,219.104
			 M115.992,217.066h1.426c0.079,0,0.191,0.011,0.339,0.031c0.147,0.019,0.294,0.067,0.441,0.146
			c0.146,0.079,0.275,0.196,0.381,0.354c0.11,0.154,0.163,0.371,0.163,0.646c0,0.256-0.048,0.442-0.14,0.562
			c-0.093,0.115-0.206,0.191-0.338,0.227c-0.132,0.035-0.277,0.05-0.433,0.045c-0.158-0.006-0.295-0.008-0.413-0.008h-1.426V217.066
			z M119.059,223.031c-0.3,0.121-0.783,0.184-1.45,0.184h-1.617v-1.765h1.617c0.667,0,1.15,0.06,1.45,0.177
			c0.299,0.117,0.448,0.348,0.448,0.689C119.507,222.671,119.357,222.907,119.059,223.031"/>
	</g>
	<g>
		<defs>
			<rect id="SVGID_63_" y="70.197" width="254.088" height="178.803"/>
		</defs>
		<clipPath id="SVGID_64_">
			<use xlink:href="#SVGID_63_"  overflow="visible"/>
		</clipPath>
		<polygon clip-path="url(#SVGID_64_)" fill="#FFFFFF" points="123.697,214.729 123.697,225.521 131.021,225.521 131.021,223.259 
			125.946,223.259 125.946,214.729 		"/>
	</g>
	<g>
		<defs>
			<rect id="SVGID_65_" y="70.197" width="254.088" height="178.803"/>
		</defs>
		<clipPath id="SVGID_66_">
			<use xlink:href="#SVGID_65_"  overflow="visible"/>
		</clipPath>
		<rect x="133.093" y="214.744" clip-path="url(#SVGID_66_)" fill="#FFFFFF" width="2.236" height="10.779"/>
	</g>
	<g>
		<defs>
			<rect id="SVGID_67_" y="70.197" width="254.088" height="178.803"/>
		</defs>
		<clipPath id="SVGID_68_">
			<use xlink:href="#SVGID_67_"  overflow="visible"/>
		</clipPath>
		<path clip-path="url(#SVGID_68_)" fill="#FFFFFF" d="M145.394,223.449c0.151-0.372,0.229-0.715,0.229-1.028
			c0-1.099-0.379-1.948-1.133-2.552c-0.757-0.604-1.828-0.905-3.222-0.905c-0.528,0-0.906-0.11-1.133-0.337
			c-0.078-0.079-0.132-0.165-0.16-0.259c-0.031-0.093-0.056-0.179-0.074-0.257c-0.021-0.098-0.028-0.195-0.028-0.295l0.015-0.016
			V217.7c0-0.069,0.021-0.158,0.059-0.265c0.039-0.108,0.115-0.211,0.229-0.311c0.112-0.098,0.273-0.182,0.486-0.25
			c0.209-0.068,0.49-0.104,0.844-0.104c0.362,0,0.658,0.045,0.883,0.133c0.228,0.089,0.397,0.199,0.516,0.332
			c0.117,0.132,0.197,0.272,0.234,0.426c0.039,0.152,0.061,0.287,0.061,0.404v-0.029l2.234,0.072c0-0.039-0.008-0.143-0.016-0.31
			c-0.01-0.166-0.043-0.366-0.104-0.603c-0.059-0.234-0.156-0.489-0.293-0.764c-0.139-0.274-0.33-0.539-0.574-0.795
			c-0.706-0.734-1.688-1.104-2.941-1.104c-1.273,0-2.27,0.357-2.982,1.072c-0.197,0.197-0.353,0.4-0.465,0.61
			c-0.113,0.211-0.201,0.41-0.267,0.597c-0.062,0.187-0.104,0.354-0.123,0.506c-0.021,0.152-0.03,0.264-0.03,0.332
			c0,0.08,0.002,0.205,0.008,0.375c0.006,0.172,0.031,0.373,0.08,0.604s0.133,0.477,0.25,0.735s0.284,0.507,0.5,0.743
			c0.108,0.127,0.246,0.254,0.414,0.382c0.166,0.127,0.36,0.241,0.588,0.346c0.225,0.103,0.485,0.188,0.785,0.258
			c0.301,0.068,0.637,0.103,1.008,0.103c0.49,0,0.9,0.047,1.234,0.14c0.333,0.095,0.568,0.224,0.706,0.392
			c0.078,0.099,0.125,0.205,0.142,0.322c0.015,0.118,0.021,0.234,0.021,0.354c-0.065,0.207-0.167,0.371-0.293,0.492
			c-0.128,0.123-0.319,0.234-0.574,0.34c-0.255,0.103-0.603,0.152-1.043,0.152c-0.274,0-0.521-0.035-0.733-0.109
			c-0.219-0.074-0.401-0.164-0.554-0.272c-0.151-0.106-0.27-0.22-0.353-0.337c-0.083-0.118-0.127-0.223-0.127-0.309h-2.234
			c0,0.439,0.105,0.859,0.316,1.256c0.211,0.398,0.5,0.742,0.867,1.037s0.793,0.529,1.271,0.707
			c0.479,0.175,0.995,0.264,1.545,0.264c0.754,0,1.396-0.107,1.926-0.323c0.53-0.216,0.959-0.485,1.286-0.81
			C145.002,224.17,145.241,223.822,145.394,223.449"/>
	</g>
	<g>
		<defs>
			<rect id="SVGID_69_" y="70.197" width="254.088" height="178.803"/>
		</defs>
		<clipPath id="SVGID_70_">
			<use xlink:href="#SVGID_69_"  overflow="visible"/>
		</clipPath>
		<polygon clip-path="url(#SVGID_70_)" fill="#FFFFFF" points="156.372,225.537 156.372,214.744 154.106,214.744 154.106,219.332 
			150.354,219.332 150.354,214.744 148.106,214.744 148.106,225.537 150.354,225.537 150.354,221.582 154.106,221.582 
			154.106,225.537 		"/>
	</g>
	<g>
		<defs>
			<rect id="SVGID_71_" y="70.197" width="254.088" height="178.803"/>
		</defs>
		<clipPath id="SVGID_72_">
			<use xlink:href="#SVGID_71_"  overflow="visible"/>
		</clipPath>
		<polygon clip-path="url(#SVGID_72_)" fill="#FFFFFF" points="166.21,216.966 166.21,214.729 158.931,214.729 158.931,225.509 
			166.21,225.509 166.21,223.259 161.165,223.259 161.165,221.404 166.019,221.404 166.019,219.154 161.165,219.154 
			161.165,216.966 		"/>
	</g>
	<g>
		<defs>
			<rect id="SVGID_73_" y="70.197" width="254.088" height="178.803"/>
		</defs>
		<clipPath id="SVGID_74_">
			<use xlink:href="#SVGID_73_"  overflow="visible"/>
		</clipPath>
		<path clip-path="url(#SVGID_74_)" fill="#FFFFFF" d="M175.024,215.928c-0.338-0.24-0.668-0.433-0.992-0.58
			c-0.363-0.156-0.735-0.279-1.118-0.367c-0.382-0.088-0.765-0.152-1.146-0.191c-0.384-0.039-0.754-0.062-1.11-0.064
			c-0.358-0.006-0.694-0.009-1.007-0.009h-1.104v10.81h1.104c0.293,0,0.678-0.008,1.152-0.022c0.477-0.014,0.98-0.073,1.516-0.176
			c0.533-0.104,1.07-0.263,1.609-0.479c0.537-0.216,1.026-0.523,1.463-0.927c0.438-0.401,0.793-0.909,1.065-1.521
			c0.276-0.612,0.412-1.37,0.412-2.272c0-0.733-0.087-1.37-0.265-1.903c-0.176-0.533-0.4-0.99-0.668-1.367
			C175.667,216.479,175.364,216.168,175.024,215.928 M174.437,221.45c-0.142,0.372-0.369,0.686-0.685,0.94
			c-0.312,0.256-0.715,0.453-1.206,0.596c-0.488,0.143-1.083,0.238-1.777,0.287v-6.31c0.656,0.029,1.228,0.099,1.713,0.206
			c0.483,0.107,0.89,0.281,1.215,0.521c0.322,0.24,0.562,0.557,0.719,0.949c0.156,0.392,0.236,0.887,0.236,1.483
			C174.649,220.636,174.58,221.077,174.437,221.45"/>
	</g>
	<g>
		<defs>
			<rect id="SVGID_75_" y="70.197" width="254.088" height="178.803"/>
		</defs>
		<clipPath id="SVGID_76_">
			<use xlink:href="#SVGID_75_"  overflow="visible"/>
		</clipPath>
		<path clip-path="url(#SVGID_76_)" fill="#FFFFFF" d="M99.77,248.611c0.146,0.17,0.266,0.17,0.363,0.023
			c2.833-3.607,8.813-11.597,10.266-13.921c0.339-0.558,0.363-0.8,0.266-1.187c-0.049-0.193-0.194-0.461-0.339-0.629
			c-0.121-0.147-0.242-0.17-0.387,0c-1.235,1.5-4.068,3.705-6.029,4.43c-0.12,0.049-0.145,0.146-0.024,0.219
			c0.145,0.096,0.363,0.193,0.629,0.242c0.315,0.072,0.775,0,1.138-0.146c0.436-0.168,0.872-0.436,1.332-0.748
			c-2.784,3.558-5.859,7.528-7.288,9.537c-0.314,0.438-0.387,0.824-0.314,1.334C99.431,248.078,99.6,248.395,99.77,248.611"/>
	</g>
	<g>
		<defs>
			<rect id="SVGID_77_" y="70.197" width="254.088" height="178.803"/>
		</defs>
		<clipPath id="SVGID_78_">
			<use xlink:href="#SVGID_77_"  overflow="visible"/>
		</clipPath>
		<path clip-path="url(#SVGID_78_)" fill="#FFFFFF" d="M109.33,249c3.123,0,6.344-2.713,8.861-6.367
			c1.672-2.374,2.979-4.892,2.979-7.095c0-1.524-0.75-2.856-2.857-2.856c-3.535,0-7.796,3.994-7.796,7.65
			c0,1.961,1.162,3.146,2.881,3.146c1.332,0,2.566-0.508,3.535-1.621c-1.961,2.855-4.891,5.302-7.215,5.302
			c-1.308,0-2.01-0.75-2.324-1.767c-0.049-0.172-0.122-0.195-0.267-0.05c-0.436,0.437-0.75,1.404-0.46,2.13
			C107.079,248.466,107.999,249,109.33,249 M114.1,242.075c-1.114,0-1.622-0.728-1.622-1.89c0-2.688,3.341-6.199,5.496-6.199
			c1.042,0,1.332,0.848,1.332,1.695C119.306,238.516,116.327,242.075,114.1,242.075"/>
	</g>
	<g>
		<defs>
			<rect id="SVGID_79_" y="70.197" width="254.088" height="178.803"/>
		</defs>
		<clipPath id="SVGID_80_">
			<use xlink:href="#SVGID_79_"  overflow="visible"/>
		</clipPath>
		<path clip-path="url(#SVGID_80_)" fill="#FFFFFF" d="M118.912,248.562c0.146,0.219,0.29,0.192,0.437,0
			c3.486-5.181,10.628-11.063,14.042-13.39c0.582-0.386,0.605-0.726,0.459-1.403c-0.121-0.582-0.218-0.727-0.726-0.772
			c-2.785-0.269-6.901-0.05-9.638,0.41c-0.169,0.022-0.216,0.194-0.143,0.313c0.218,0.364,0.531,0.702,0.896,0.922
			c0.58,0.361,1.33,0.387,2.203,0.289c1.548-0.145,3.535-0.509,5.664-0.509c-3.85,2.324-9.877,7.069-13.122,11.259
			c-0.557,0.701-0.557,1.187-0.484,1.719C118.573,247.861,118.743,248.297,118.912,248.562"/>
	</g>
	<g>
		<defs>
			<rect id="SVGID_81_" y="70.197" width="254.088" height="178.803"/>
		</defs>
		<clipPath id="SVGID_82_">
			<use xlink:href="#SVGID_81_"  overflow="visible"/>
		</clipPath>
		<path clip-path="url(#SVGID_82_)" fill="#FFFFFF" d="M144.161,234.206c0.268-0.022,0.338-0.146,0.193-0.362
			c-0.508-0.753-1.694-1.234-2.978-0.992c-3.173,0.629-6.901,3.219-8.958,5.979c-1.622,2.154-2.713,4.503-2.713,6.755
			c0,2.011,1.139,3.366,3.1,3.366c3.85,0,7.553-4.044,7.553-7.531c0-1.887-1.137-3.001-3.002-3.001c-1.233,0-2.373,0.39-3.39,1.138
			C136.413,236.725,140.625,234.375,144.161,234.206 M136.874,239.654c0.991,0,1.646,0.652,1.646,1.863
			c0,2.471-2.832,5.932-5.424,5.932c-0.994,0-1.574-0.701-1.574-1.936C131.522,242.85,134.114,239.654,136.874,239.654"/>
	</g>
</g>
</svg>
